inDegrees=yes
name=ik_lifting_orientations
DataType=double
version=3
OpenSimVersion=4.5-2024-01-10-34fd6af
endheader
time	pelvis_tilt	pelvis_list	pelvis_rotation	pelvis_tx	pelvis_ty	pelvis_tz	hip_flexion_r	hip_adduction_r	hip_rotation_r	knee_angle_r	knee_angle_r_beta	ankle_angle_r	subtalar_angle_r	mtp_angle_r	hip_flexion_l	hip_adduction_l	hip_rotation_l	knee_angle_l	knee_angle_l_beta	ankle_angle_l	subtalar_angle_l	mtp_angle_l	lumbar_extension	lumbar_bending	lumbar_rotation	arm_flex_r	arm_add_r	arm_rot_r	elbow_flex_r	pro_sup_r	wrist_flex_r	wrist_dev_r	arm_flex_l	arm_add_l	arm_rot_l	elbow_flex_l	pro_sup_l	wrist_flex_l	wrist_dev_l
0.02	-0.007079706405196219	-0.004357513321680496	-90.05032320522929	0	0.9399999998679526	0	45.81785214644802	-10.649533846505	0	60.38018989458828	1.053833116639973	-5.28254403365537	0	0	45.81785214644802	-10.649533846505	0	60.38018989458828	1.053833116639973	-5.28254403365537	0	0	-0.01074810315774211	-0.001924005254708058	-0.008220933354653353	-0.4610289927417351	-0.1024026098155241	-0.02237901214972807	0.9766117881135632	1.046713238696909	0	0	0	-12.26874166430302	0	88.98381251352707	1.046713238696909	0	0
0.03	0.02014190525539635	0.07035771131112503	-90.36790639106924	0	0.9399999998679526	0	45.81764482849214	-10.64896580936973	0	60.38011353366132	1.053831783890378	-5.282222609044926	0	0	45.81764482849214	-10.64896580936973	0	60.38011353366132	1.053831783890378	-5.282222609044926	0	0	0.08209603033797015	-0.01690213888713269	0.2970592781561907	-0.2944529129180261	-0.07180293463137714	-0.03213495335696207	0.5165901051832009	1.046527909703056	0	0	0	-12.26909881620869	0	88.98399240561996	1.046527909703056	0	0
0.04	0.02765419413040677	0.05666383999274365	-90.51003724553406	0	0.9399999998679526	0	45.79840267576873	-10.60177474845979	0	60.37304194012911	1.053708361299878	-5.256725683051624	0	0	45.79840267576873	-10.60177474845979	0	60.37304194012911	1.053708361299878	-5.256725683051624	0	0	0.05591942045198642	-0.02494013293562904	0.4399745591069605	-0.2810675918238617	-0.1020867260967162	-0.02787813693210938	0.5196695525034964	1.029128380197672	0	0	0	-12.30282092919938	0	89.00088150382875	1.029128380197672	0	0
0.05	0.004251594544905968	0.05917702020980616	-90.38900899487409	0	0.9399999998679526	0	45.78026351341819	-10.56085638685236	0	60.3663172881806	1.053590993982326	-5.235258663788845	0	0	45.78026351341819	-10.56085638685236	0	60.3663172881806	1.053590993982326	-5.235258663788845	0	0	0.05495156550719422	-0.001926199913568527	0.2546169563324782	-0.5200165981189339	-0.1579766969495667	0.02693370877457916	1.014726410579309	1.012530172803588	0	0	0	-12.33522772207827	0	89.01699279514	1.012530172803588	0	0
0.06	0.003617076981537348	0.1108913173555279	-90.50910281211139	0	0.9399999998679526	0	45.76385278317525	-10.52407369126761	0	60.36023180324956	1.053484782233699	-5.216027839259779	0	0	45.76385278317525	-10.52407369126761	0	60.36023180324956	1.053484782233699	-5.216027839259779	0	0	0.1092302070181336	-0.002621617755342479	0.3677515596800821	-0.2824750204154018	-0.09860106404934169	0.04163287061763976	0.5182715116333	0.9975045556733197	0	0	0	-12.36457382884296	0	89.03157762887226	0.9975045556733197	0	0
0.07000000000000001	0.003381489743580861	0.1868100076444237	-90.50712700448892	0	0.9399999998679526	0	45.74459619268433	-10.48379368117851	0	60.35304365423978	1.053359325366354	-5.195498961337058	0	0	45.74459619268433	-10.48379368117851	0	60.35304365423978	1.053359325366354	-5.195498961337058	0	0	0.1833566804485832	-0.001688452058442744	0.4413485472550085	-0.2804583716797025	-0.09822755289330404	-0.03312784118758638	0.5214813509990306	0.9797058715203283	0	0	0	-12.39953794267459	0	89.04885418671419	0.9797058715203283	0	0
0.08	-0.001688665704401153	0.1311118547784443	-90.50208245798348	0	0.9399999998679526	0	45.71319860935301	-10.42130969719117	0	60.34126689323831	1.053153782111658	-5.164251062547613	0	0	45.71319860935301	-10.42130969719117	0	60.34126689323831	1.053153782111658	-5.164251062547613	0	0	0.1465602419084089	0.005710260288922577	0.3690180962777627	-0.5413902942713644	-0.1615273515442205	0.02506152055127031	1.017247312528774	0.9504908816311751	0	0	0	-12.45716386051599	0	89.07721215786194	0.9504908816311751	0	0
0.09	0.01942272611599121	0.2047096222871595	-90.55960882375118	0	0.9399999998679526	0	45.69695492092703	-10.39173538430801	0	60.33512071678624	1.053046511096161	-5.149942050698994	0	0	45.69695492092703	-10.39173538430801	0	60.33512071678624	1.053046511096161	-5.149942050698994	0	0	0.2180569430559853	-0.01650637209155126	0.4236497713732483	-0.3582711944969755	-0.118326405574437	0.03866190931288984	0.6477658651174611	0.9351923720644051	0	0	0	-12.48756467690931	0	89.09206189319099	0.9351923720644051	0	0
0.1	-0.0003818561422589936	0.1942284030127757	-90.50466185504325	0	0.9399999998679526	0	45.66007251320761	-10.32816433524281	0	60.32109240957541	1.052801670946851	-5.119809668353665	0	0	45.66007251320761	-10.32816433524281	0	60.32109240957541	1.052801670946851	-5.119809668353665	0	0	0.1949801951632804	0.0004706559886859203	0.3630813135787331	-0.5244268792172965	-0.15323277871438	0.03580817405505742	1.007848495583377	0.9001982364472718	0	0	0	-12.55741951104458	0	89.12602950048405	0.9001982364472718	0	0
0.11	-0.01069057750762183	0.2404006212640981	-90.50408958490507	0	0.9399999998679526	0	45.64576602052085	-10.3058080981202	0	60.31560018570119	1.052705813556989	-5.109607487528237	0	0	45.64576602052085	-10.3058080981202	0	60.31560018570119	1.052705813556989	-5.109607487528237	0	0	0.2453248363724687	0.006221211898534693	0.3668834640346576	-0.3521524751757324	-0.07888233337738261	0.02442957079469249	0.6473963441917806	0.8864475915359025	0	0	0	-12.58508575247916	0	89.13937678496673	0.8864475915359025	0	0
0.12	0.02856620493336183	0.2399814642931691	-90.63464810679083	0	0.9399999998679526	0	45.61054651384934	-10.25449078785029	0	60.30199030535773	1.052468276334193	-5.086803489988928	0	0	45.61054651384934	-10.25449078785029	0	60.30199030535773	1.052468276334193	-5.086803489988928	0	0	0.2376803571617385	-0.02664608867223795	0.4961389456955125	-0.2874606541177742	-0.07264769997365929	0.0285456639319165	0.5311041380092189	0.8522784372458823	0	0	0	-12.65422805096364	0	89.17254363204017	0.8522784372458823	0	0
0.13	0.02716151363497291	0.3077969450132236	-90.63337595869983	0	0.9399999998679526	0	45.59460426135946	-10.23434204230628	0	60.29574577863974	1.052359288782736	-5.078321926258411	0	0	45.59460426135946	-10.23434204230628	0	60.29574577863974	1.052359288782736	-5.078321926258411	0	0	0.304520314839747	-0.02327490028214864	0.4961312844389882	-0.2992008268320404	-0.05644715844612231	0.05543866005661618	0.4991258612633464	0.8365144722986252	0	0	0	-12.68650054448841	0	89.18784518934618	0.8365144722986252	0	0
0.14	0.00318339756340686	0.2580664648678775	-90.58203346892749	0	0.9399999998679526	0	45.58357894052318	-10.22129135938975	0	60.29139531657413	1.052283358895707	-5.072947517617171	0	0	45.58357894052318	-10.22129135938975	0	60.29139531657413	1.052283358895707	-5.072947517617171	0	0	0.2627510362596742	0.001371765268168879	0.443997168523896	-0.5491324403645794	-0.1000029232921832	0.04412003375739079	0.9923926096072865	0.8255058029304864	0	0	0	-12.70917622246619	0	89.19853094145736	0.8255058029304864	0	0
